<?xml version="1.0" standalone="no"?>
<!DOCTYPE svg PUBLIC "-//W3C//DTD SVG 20010904//EN"
 "http://www.w3.org/TR/2001/REC-SVG-20010904/DTD/svg10.dtd">
<svg version="1.0" xmlns="http://www.w3.org/2000/svg"
 width="2500.000000pt" height="2500.000000pt" viewBox="0 0 2500.000000 2500.000000"
 preserveAspectRatio="xMidYMid meet">
<metadata>
Created by potrace 1.14, written by Peter Selinger 2001-2017
</metadata>
<g transform="translate(0.000000,2500.000000) scale(0.100000,-0.100000)"
fill="#000000" stroke="none">
<path d="M10695 21953 c-788 -63 -1459 -262 -2085 -617 -860 -489 -1532 -1204
-1965 -2091 -687 -1409 -670 -3082 45 -4530 386 -782 906 -1408 1622 -1953
183 -140 241 -193 324 -296 353 -438 431 -1044 213 -1661 -45 -127 -205 -451
-332 -672 -733 -1274 -1655 -2063 -2477 -2118 -86 -6 -254 6 -266 18 -10 10
64 275 137 487 372 1080 1092 2055 1769 2395 285 143 506 161 732 59 87 -39
115 -38 149 5 18 22 21 36 17 101 -22 360 -583 595 -1148 480 -173 -35 -361
-136 -590 -318 -129 -102 -472 -447 -608 -612 -501 -608 -922 -1327 -1157
-1979 l-52 -143 -58 87 c-391 587 -532 1573 -386 2685 24 180 7 343 -55 535
-59 178 -112 276 -209 385 -85 96 -236 210 -277 210 -15 0 -18 9 -18 59 l0 60
68 35 c178 94 272 245 272 436 0 228 -130 404 -359 488 -89 32 -246 40 -351
18 -252 -53 -430 -261 -430 -501 0 -189 95 -343 271 -440 l74 -41 5 -190 c6
-215 10 -228 83 -266 33 -17 57 -21 111 -19 85 2 102 -8 144 -86 93 -176 88
-479 -12 -688 -97 -202 -227 -709 -276 -1075 -27 -199 -38 -622 -21 -806 31
-342 113 -678 222 -913 21 -46 39 -89 39 -95 0 -16 -185 170 -312 314 -445
504 -809 1139 -953 1667 -55 199 -66 278 -75 548 -5 144 -15 286 -24 333 -71
384 -251 778 -451 991 -168 177 -402 271 -685 273 -258 1 -483 -73 -670 -221
-157 -125 -265 -300 -296 -480 -8 -52 -13 -109 -10 -126 9 -48 46 -77 107 -83
l51 -5 57 64 c194 220 297 280 476 283 83 1 96 -2 157 -32 152 -75 282 -251
363 -495 59 -179 80 -308 105 -672 28 -400 59 -630 121 -905 163 -715 508
-1404 988 -1975 104 -123 354 -378 481 -489 324 -285 709 -541 1076 -717 l141
-67 6 -88 c3 -49 4 -91 2 -92 -2 -2 -79 22 -172 53 -451 152 -968 405 -1413
690 -473 304 -842 602 -1185 957 -93 97 -183 182 -199 188 -45 17 -98 -14
-110 -63 -9 -34 -6 -46 28 -115 366 -739 1085 -1526 1881 -2059 449 -300 862
-494 1343 -630 l64 -18 44 -110 c124 -308 293 -601 495 -856 97 -123 349 -378
469 -472 424 -337 899 -536 1465 -613 159 -22 595 -25 750 -6 494 62 920 192
1374 417 1400 697 2539 2131 3007 3788 49 171 105 411 125 533 7 41 16 74 19
74 3 0 12 -33 19 -74 20 -122 76 -362 125 -533 468 -1657 1607 -3091 3007
-3788 454 -225 880 -355 1374 -417 155 -19 591 -16 750 6 566 77 1041 276
1465 613 120 94 372 349 469 472 202 255 371 548 495 856 l44 110 64 18 c481
136 894 330 1343 630 796 533 1515 1320 1881 2059 34 69 37 81 28 115 -12 49
-65 80 -110 63 -16 -6 -105 -91 -199 -188 -343 -355 -712 -653 -1185 -957
-445 -285 -962 -538 -1413 -690 -93 -31 -170 -55 -172 -53 -2 1 -1 43 2 92 l6
88 141 67 c654 313 1268 816 1716 1406 391 515 685 1145 829 1775 62 275 93
505 121 905 25 364 46 493 105 672 81 244 211 420 363 495 61 30 74 33 157 32
179 -3 282 -63 476 -283 l57 -64 51 5 c61 6 98 35 107 83 3 17 -2 74 -10 126
-20 117 -90 265 -168 357 -269 319 -769 434 -1186 272 -262 -101 -468 -353
-628 -768 -100 -257 -133 -432 -144 -757 -9 -270 -20 -349 -75 -548 -144 -527
-504 -1157 -952 -1667 -109 -123 -347 -360 -403 -400 l-29 -21 30 88 c288 841
239 2123 -110 2858 -96 201 -178 316 -310 430 -90 79 -213 212 -287 312 -30
40 -54 74 -54 77 0 4 147 6 328 6 394 0 429 6 471 81 42 74 51 137 51 348 l0
198 74 46 c102 65 221 193 275 295 58 112 81 210 81 341 0 147 -33 265 -111
399 -52 88 -218 248 -318 306 -72 42 -211 164 -211 184 0 3 -12 18 -26 33 -33
35 -53 114 -60 244 -7 143 -12 162 -44 199 -40 46 -94 59 -221 54 -175 -6
-219 -46 -219 -199 -1 -119 -30 -262 -62 -297 -13 -15 -56 -61 -94 -103 -81
-88 -130 -179 -144 -264 -7 -38 -8 -180 -4 -380 l6 -320 -112 -53 c-96 -47
-123 -65 -194 -135 -114 -112 -181 -234 -223 -403 -25 -106 -23 -340 5 -471
43 -200 133 -405 258 -590 83 -123 126 -174 289 -343 141 -146 204 -232 265
-362 116 -249 168 -529 157 -853 -12 -325 -74 -597 -202 -885 -92 -207 -205
-427 -266 -519 l-62 -94 -52 144 c-235 652 -656 1371 -1157 1979 -136 165
-479 510 -608 612 -229 182 -417 283 -590 318 -394 80 -806 -7 -1016 -215 -85
-84 -126 -167 -132 -265 -4 -65 -1 -79 17 -101 34 -43 62 -44 149 -5 146 66
265 80 422 50 309 -58 677 -301 1013 -669 495 -542 902 -1276 1136 -2050 41
-137 73 -266 67 -272 -12 -12 -180 -24 -266 -18 -900 61 -1916 1001 -2660
2460 -149 293 -218 498 -255 755 -17 122 -19 339 -5 460 35 283 151 562 324
776 83 103 141 156 324 296 490 372 877 773 1209 1249 680 974 1024 2177 953
3329 -105 1702 -1011 3173 -2460 3996 -495 281 -1088 485 -1650 569 -343 51
-233 49 -2185 50 -1001 1 -1838 0 -1860 -2z m-778 -3419 c113 -23 189 -50 308
-109 444 -220 767 -713 850 -1295 19 -136 19 -423 0 -559 -134 -939 -875
-1554 -1639 -1360 -484 123 -878 547 -1045 1124 -62 215 -88 546 -62 771 52
443 228 816 512 1089 306 293 696 416 1076 339z m5609 0 c399 -71 767 -380
975 -819 132 -279 186 -553 176 -899 -10 -384 -110 -709 -312 -1011 -475 -714
-1337 -838 -1927 -277 -276 263 -453 623 -513 1043 -19 136 -19 423 0 559 57
397 218 744 466 1005 194 203 399 326 646 390 143 36 320 40 489 9z m5307
-5121 l117 -6 0 -272 0 -272 -350 0 c-315 0 -350 1 -350 16 0 9 -3 132 -7 273
l-6 257 74 4 c138 6 403 6 522 0z m-16912 -69 c268 -78 353 -391 158 -586
-193 -193 -529 -141 -645 100 -23 47 -28 71 -28 137 -1 71 3 88 32 147 49 99
152 182 259 207 61 15 165 12 224 -5z m-93 -977 l3 -117 -35 0 -34 0 -7 105
c-4 57 -5 111 -2 119 3 8 18 13 39 12 l33 -2 3 -117z m1914 -6142 c308 -50
439 -59 823 -60 282 0 395 4 524 18 89 10 165 16 168 14 5 -6 -248 -68 -412
-101 -160 -32 -370 -63 -533 -77 -155 -13 -496 -7 -594 11 l-66 13 -36 93
c-35 91 -41 114 -31 114 2 0 73 -11 157 -25z m13678 15 c0 -6 -16 -52 -36
-104 l-36 -93 -66 -13 c-98 -18 -439 -24 -594 -11 -163 14 -373 45 -533 77
-164 33 -417 95 -412 101 3 2 79 -4 168 -14 127 -14 244 -18 519 -18 379 0
539 12 820 60 161 27 170 28 170 15z m-9682 -112 c-217 -277 -548 -608 -823
-823 -241 -189 -593 -391 -835 -479 -596 -217 -1153 -170 -1607 135 -93 63
-202 151 -260 211 l-42 43 307 1 c471 1 846 49 1362 176 627 153 1319 426
1820 717 58 33 107 61 108 61 2 0 -11 -19 -30 -42z m5612 -25 c685 -393 1612
-713 2410 -832 296 -44 445 -55 762 -55 l307 -1 -42 -43 c-23 -24 -73 -70
-112 -101 -491 -402 -1092 -486 -1755 -245 -154 56 -425 196 -590 305 -257
169 -454 334 -701 585 -170 174 -432 474 -394 452 6 -3 57 -32 115 -65z"/>
<path d="M9615 17790 c-103 -14 -186 -40 -280 -86 -299 -148 -504 -429 -571
-782 -22 -118 -15 -354 14 -464 98 -369 367 -634 712 -704 108 -22 281 -15
390 16 337 94 617 393 710 756 142 554 -154 1116 -656 1244 -87 22 -237 32
-319 20z"/>
<path d="M15157 17789 c-546 -75 -899 -671 -747 -1263 93 -363 373 -662 710
-756 109 -31 282 -38 390 -16 345 70 614 335 712 704 29 110 36 346 14 464
-67 354 -272 634 -573 783 -152 74 -344 107 -506 84z"/>
<path d="M3375 14205 c-17 -16 -25 -35 -25 -59 0 -34 135 -426 171 -497 20
-41 35 -49 85 -49 44 0 84 37 84 78 0 47 -164 493 -193 525 -33 36 -87 37
-122 2z"/>
<path d="M4093 14215 c-23 -16 -48 -76 -143 -347 -66 -187 -69 -210 -28 -248
27 -25 88 -27 117 -2 28 23 193 472 193 526 1 31 -5 45 -26 63 -31 27 -81 30
-113 8z"/>
<path d="M2783 13908 c-56 -62 -38 -101 118 -253 263 -255 263 -255 306 -255
60 0 88 36 84 108 -1 24 -29 53 -282 300 -118 114 -129 122 -166 122 -28 0
-45 -6 -60 -22z"/>
<path d="M4493 13727 c-192 -192 -203 -205 -203 -240 0 -53 35 -87 90 -87 41
0 47 5 232 188 104 103 196 199 204 214 20 39 17 62 -12 97 -21 25 -33 31 -67
31 -41 0 -46 -4 -244 -203z"/>
</g>
</svg>
